<svg width="81" height="1041" viewBox="0 0 81 1041" fill="none" xmlns="http://www.w3.org/2000/svg">
<mask id="path-1-outside-1_133_89" maskUnits="userSpaceOnUse" x="0" y="0" width="81" height="1041" fill="black">
<rect fill="white" width="81" height="1041"/>
<path d="M76.76 1038.22H3.26004L3.26003 1004.83C3.26003 996.855 4.80003 989.82 7.88004 983.73C10.89 977.64 15.125 972.88 20.585 969.45C26.045 966.02 32.52 964.305 40.01 964.305C47.43 964.305 53.905 966.02 59.435 969.45C64.895 972.88 69.165 977.64 72.245 983.73C75.255 989.82 76.76 996.855 76.76 1004.83V1038.22ZM62.795 1021.21V1005.67C62.795 1000.77 61.885 996.54 60.065 992.97C58.175 989.33 55.515 986.53 52.085 984.57C48.655 982.54 44.63 981.525 40.01 981.525C35.32 981.525 31.295 982.54 27.935 984.57C24.505 986.53 21.88 989.33 20.06 992.97C18.17 996.54 17.225 1000.77 17.225 1005.67L17.225 1021.21H62.795ZM76.76 962.162L3.26003 929.402L3.26003 912.602L76.76 879.737V897.587L11.87 924.467L11.87 917.747L76.76 944.732V962.162ZM61.01 945.782L48.095 941.267V903.467L61.01 898.847L61.01 945.782ZM76.76 872.111H3.26003L3.26003 858.041L56.18 814.676V821.501H3.26003L3.26003 804.701H76.76V818.666L23.84 862.136V855.311H76.76V872.111ZM76.76 787.311H3.26003L3.26002 770.302H76.76V787.311ZM32.87 737.213L32.87 701.828H46.1V737.213H32.87ZM63.11 735.953L63.11 695.948H76.76V752.858H3.26002L3.26002 697.313H16.91L16.91 735.953H63.11ZM76.76 682.414H3.26002L3.26002 665.404H62.9V628.549H76.76V682.414ZM76.76 589.309H3.26002L3.26002 575.239L55.13 543.949L55.13 551.404L3.26001 520.639L3.26001 506.674L76.76 506.464V522.424L27.725 522.529V519.589L68.99 544.159V551.824L27.725 576.919V573.349H76.76L76.76 589.309ZM32.87 473.38L32.87 437.995H46.1V473.38H32.87ZM63.11 472.12L63.11 432.115H76.76V489.025H3.26001L3.26001 433.48H16.91L16.91 472.12H63.11ZM76.76 418.581H3.26001L3.26001 401.571H62.9V364.716H76.76L76.76 418.581ZM76.76 355.212H3.26001L3.26001 341.142L56.18 297.777V304.602H3.26L3.26 287.802H76.76V301.767L23.84 345.237V338.412H76.76V355.212ZM76.76 270.412H3.26L3.26 253.402H76.76V270.412ZM59.96 220.734L40.325 221.679L3.26 186.504L3.26 167.604L37.385 199.314L47.465 208.764L59.96 220.734ZM76.76 235.959L3.26 235.959L3.26 219.054L76.76 219.054L76.76 235.959ZM76.76 185.664L44.735 211.809L32.66 200.679L76.76 165.819V185.664ZM78.02 125.2C78.02 131.01 77.075 136.4 75.185 141.37C73.295 146.27 70.635 150.54 67.205 154.18C63.775 157.75 59.75 160.55 55.13 162.58C50.51 164.54 45.47 165.52 40.01 165.52C34.55 165.52 29.51 164.54 24.89 162.58C20.27 160.55 16.245 157.715 12.815 154.075C9.385 150.435 6.725 146.165 4.835 141.265C2.945 136.365 2 131.045 2 125.305C2 119.495 2.945 114.175 4.83499 109.345C6.72499 104.445 9.385 100.21 12.815 96.6404C16.245 93.0004 20.27 90.1654 24.89 88.1354C29.44 86.1053 34.48 85.0903 40.01 85.0903C45.47 85.0903 50.545 86.1054 55.235 88.1354C59.855 90.1654 63.88 93.0004 67.31 96.6404C70.67 100.21 73.295 104.445 75.185 109.345C77.075 114.175 78.02 119.46 78.02 125.2ZM63.53 125.305C63.53 122.015 62.97 119.005 61.85 116.275C60.73 113.475 59.12 111.025 57.02 108.925C54.92 106.825 52.435 105.215 49.565 104.095C46.695 102.905 43.51 102.31 40.01 102.31C36.51 102.31 33.325 102.905 30.455 104.095C27.585 105.215 25.1 106.825 23 108.925C20.9 110.955 19.29 113.37 18.17 116.17C17.05 118.97 16.49 122.015 16.49 125.305C16.49 128.595 17.05 131.64 18.17 134.44C19.29 137.17 20.9 139.585 23 141.685C25.1 143.785 27.585 145.43 30.455 146.62C33.325 147.74 36.51 148.3 40.01 148.3C43.44 148.3 46.625 147.74 49.565 146.62C52.435 145.43 54.92 143.82 57.02 141.79C59.12 139.69 60.73 137.24 61.85 134.44C62.97 131.64 63.53 128.595 63.53 125.305ZM76.76 52.615L3.25999 84.325L3.25999 65.95L68.36 38.23V49.045L3.25999 20.905L3.25999 4L76.76 35.815V52.615Z"/>
</mask>
<path d="M76.76 1038.22H3.26004L3.26003 1004.83C3.26003 996.855 4.80003 989.82 7.88004 983.73C10.89 977.64 15.125 972.88 20.585 969.45C26.045 966.02 32.52 964.305 40.01 964.305C47.43 964.305 53.905 966.02 59.435 969.45C64.895 972.88 69.165 977.64 72.245 983.73C75.255 989.82 76.76 996.855 76.76 1004.83V1038.22ZM62.795 1021.21V1005.67C62.795 1000.77 61.885 996.54 60.065 992.97C58.175 989.33 55.515 986.53 52.085 984.57C48.655 982.54 44.63 981.525 40.01 981.525C35.32 981.525 31.295 982.54 27.935 984.57C24.505 986.53 21.88 989.33 20.06 992.97C18.17 996.54 17.225 1000.77 17.225 1005.67L17.225 1021.21H62.795ZM76.76 962.162L3.26003 929.402L3.26003 912.602L76.76 879.737V897.587L11.87 924.467L11.87 917.747L76.76 944.732V962.162ZM61.01 945.782L48.095 941.267V903.467L61.01 898.847L61.01 945.782ZM76.76 872.111H3.26003L3.26003 858.041L56.18 814.676V821.501H3.26003L3.26003 804.701H76.76V818.666L23.84 862.136V855.311H76.76V872.111ZM76.76 787.311H3.26003L3.26002 770.302H76.76V787.311ZM32.87 737.213L32.87 701.828H46.1V737.213H32.87ZM63.11 735.953L63.11 695.948H76.76V752.858H3.26002L3.26002 697.313H16.91L16.91 735.953H63.11ZM76.76 682.414H3.26002L3.26002 665.404H62.9V628.549H76.76V682.414ZM76.76 589.309H3.26002L3.26002 575.239L55.13 543.949L55.13 551.404L3.26001 520.639L3.26001 506.674L76.76 506.464V522.424L27.725 522.529V519.589L68.99 544.159V551.824L27.725 576.919V573.349H76.76L76.76 589.309ZM32.87 473.38L32.87 437.995H46.1V473.38H32.87ZM63.11 472.12L63.11 432.115H76.76V489.025H3.26001L3.26001 433.48H16.91L16.91 472.12H63.11ZM76.76 418.581H3.26001L3.26001 401.571H62.9V364.716H76.76L76.76 418.581ZM76.76 355.212H3.26001L3.26001 341.142L56.18 297.777V304.602H3.26L3.26 287.802H76.76V301.767L23.84 345.237V338.412H76.76V355.212ZM76.76 270.412H3.26L3.26 253.402H76.76V270.412ZM59.96 220.734L40.325 221.679L3.26 186.504L3.26 167.604L37.385 199.314L47.465 208.764L59.96 220.734ZM76.76 235.959L3.26 235.959L3.26 219.054L76.76 219.054L76.76 235.959ZM76.76 185.664L44.735 211.809L32.66 200.679L76.76 165.819V185.664ZM78.02 125.2C78.02 131.01 77.075 136.4 75.185 141.37C73.295 146.27 70.635 150.54 67.205 154.18C63.775 157.75 59.75 160.55 55.13 162.58C50.51 164.54 45.47 165.52 40.01 165.52C34.55 165.52 29.51 164.54 24.89 162.58C20.27 160.55 16.245 157.715 12.815 154.075C9.385 150.435 6.725 146.165 4.835 141.265C2.945 136.365 2 131.045 2 125.305C2 119.495 2.945 114.175 4.83499 109.345C6.72499 104.445 9.385 100.21 12.815 96.6404C16.245 93.0004 20.27 90.1654 24.89 88.1354C29.44 86.1053 34.48 85.0903 40.01 85.0903C45.47 85.0903 50.545 86.1054 55.235 88.1354C59.855 90.1654 63.88 93.0004 67.31 96.6404C70.67 100.21 73.295 104.445 75.185 109.345C77.075 114.175 78.02 119.46 78.02 125.2ZM63.53 125.305C63.53 122.015 62.97 119.005 61.85 116.275C60.73 113.475 59.12 111.025 57.02 108.925C54.92 106.825 52.435 105.215 49.565 104.095C46.695 102.905 43.51 102.31 40.01 102.31C36.51 102.31 33.325 102.905 30.455 104.095C27.585 105.215 25.1 106.825 23 108.925C20.9 110.955 19.29 113.37 18.17 116.17C17.05 118.97 16.49 122.015 16.49 125.305C16.49 128.595 17.05 131.64 18.17 134.44C19.29 137.17 20.9 139.585 23 141.685C25.1 143.785 27.585 145.43 30.455 146.62C33.325 147.74 36.51 148.3 40.01 148.3C43.44 148.3 46.625 147.74 49.565 146.62C52.435 145.43 54.92 143.82 57.02 141.79C59.12 139.69 60.73 137.24 61.85 134.44C62.97 131.64 63.53 128.595 63.53 125.305ZM76.76 52.615L3.25999 84.325L3.25999 65.95L68.36 38.23V49.045L3.25999 20.905L3.25999 4L76.76 35.815V52.615Z" stroke="#DF9D51" stroke-width="4" mask="url(#path-1-outside-1_133_89)"/>
</svg>
