<svg width="77" height="1040" viewBox="0 0 77 1040" fill="none" xmlns="http://www.w3.org/2000/svg">
<mask id="path-1-outside-1_89_68" maskUnits="userSpaceOnUse" x="-4.57221e-05" y="-4.63341e-06" width="81" height="1040" fill="black">
<rect fill="white" x="-4.57221e-05" y="-4.63341e-06" width="81" height="1040"/>
<path d="M3.49999 1037.28L3.49999 1003.89C3.49999 995.915 5.03999 988.88 8.12 982.79C11.13 976.63 15.4 971.87 20.93 968.51C26.46 965.08 32.9 963.365 40.25 963.365C47.6 963.365 54.04 965.08 59.57 968.51C65.1 971.87 69.405 976.63 72.485 982.79C75.495 988.88 77 995.915 77 1003.89L77 1037.28L3.49999 1037.28ZM63.035 1004.73C63.035 997.385 61.005 991.54 56.945 987.2C52.815 982.79 47.25 980.585 40.25 980.585C33.25 980.585 27.72 982.79 23.66 987.2C19.53 991.54 17.465 997.385 17.465 1004.73L17.465 1020.27L63.035 1020.27L63.035 1004.73ZM61.25 903.157L61.25 937.282L77 943.792L77 961.222L3.49999 928.462L3.49999 911.662L77 878.797L77 896.647L61.25 903.157ZM48.335 908.512L20.195 920.167L48.335 931.822L48.335 908.512ZM3.49998 803.762L77 803.762L77 817.727L32.375 854.372L77 854.372L77 871.172L3.49999 871.172L3.49999 857.102L48.125 820.562L3.49999 820.562L3.49998 803.762ZM3.49998 786.372L3.49998 769.362L77 769.362L77 786.372L3.49998 786.372ZM63.35 695.009L77 695.009L77 751.919L3.49998 751.919L3.49998 696.374L17.15 696.374L17.15 735.014L33.11 735.014L33.11 700.889L46.34 700.889L46.34 735.014L63.35 735.014L63.35 695.009ZM3.49998 681.474L3.49998 664.464L63.14 664.464L63.14 627.609L77 627.609L77 681.474L3.49998 681.474ZM77 521.484L32.9 521.589L69.23 543.219L69.23 550.884L33.845 572.409L77 572.409L77 588.369L3.49997 588.369L3.49997 574.299L49.175 546.789L3.49997 519.699L3.49997 505.734L77 505.524L77 521.484ZM63.35 431.176L77 431.176L77 488.086L3.49997 488.086L3.49997 432.541L17.15 432.541L17.15 471.181L33.11 471.181L33.11 437.056L46.34 437.056L46.34 471.181L63.35 471.181L63.35 431.176ZM3.49997 417.641L3.49997 400.631L63.14 400.631L63.14 363.776L77 363.776L77 417.641L3.49997 417.641ZM3.49996 286.862L77 286.862L77 300.827L32.375 337.472L77 337.472L77 354.272L3.49996 354.272L3.49996 340.202L48.125 303.662L3.49996 303.662L3.49996 286.862ZM3.49996 269.472L3.49996 252.462L77 252.462L77 269.472L3.49996 269.472ZM48.125 208.244L58.415 218.114L77 218.114L77 235.019L3.49996 235.019L3.49996 218.114L37.835 218.114L3.49996 185.564L3.49996 166.664L36.26 197.114L77 164.879L77 184.724L48.125 208.244ZM78.26 124.366C78.26 131.996 76.615 138.891 73.325 145.051C70.035 151.141 65.52 155.936 59.78 159.436C53.97 162.866 47.46 164.581 40.25 164.581C33.04 164.581 26.565 162.866 20.825 159.436C15.015 155.936 10.465 151.141 7.17496 145.051C3.88496 138.891 2.23996 131.996 2.23996 124.366C2.23996 116.736 3.88496 109.876 7.17496 103.786C10.465 97.6958 15.015 92.9008 20.825 89.4008C26.565 85.9008 33.04 84.1508 40.25 84.1508C47.46 84.1508 53.97 85.9008 59.78 89.4008C65.52 92.9008 70.035 97.6958 73.325 103.786C76.615 109.876 78.26 116.736 78.26 124.366ZM63.77 124.366C63.77 120.026 62.79 116.106 60.83 112.606C58.8 109.106 56 106.376 52.43 104.416C48.86 102.386 44.8 101.371 40.25 101.371C35.7 101.371 31.64 102.386 28.07 104.416C24.5 106.376 21.735 109.106 19.775 112.606C17.745 116.106 16.73 120.026 16.73 124.366C16.73 128.706 17.745 132.626 19.775 136.126C21.735 139.626 24.5 142.391 28.07 144.421C31.64 146.381 35.7 147.361 40.25 147.361C44.8 147.361 48.86 146.381 52.43 144.421C56 142.391 58.8 139.626 60.83 136.126C62.79 132.626 63.77 128.706 63.77 124.366ZM3.49995 3.16296L77 34.978L77 51.778L3.49995 83.488L3.49995 65.113L56 42.748L3.49995 20.068L3.49995 3.16296Z"/>
</mask>
<path d="M3.49999 1037.28L1.49999 1037.28L1.49999 1039.28L3.49999 1039.28L3.49999 1037.28ZM8.12 982.79L9.90473 983.693L9.91092 983.68L9.91694 983.668L8.12 982.79ZM20.93 968.51L21.9685 970.219L21.9764 970.214L21.9842 970.21L20.93 968.51ZM59.57 968.51L58.5158 970.21L58.5236 970.214L58.5315 970.219L59.57 968.51ZM72.485 982.79L74.278 981.904L74.2739 981.896L72.485 982.79ZM77 1037.28L77 1039.28L79 1039.28L79 1037.28L77 1037.28ZM56.945 987.2L58.4055 985.834L58.4048 985.833L56.945 987.2ZM23.66 987.2L25.1088 988.579L25.1202 988.567L25.1314 988.555L23.66 987.2ZM17.465 1020.27L15.465 1020.27L15.465 1022.27L17.465 1022.27L17.465 1020.27ZM63.035 1020.27L63.035 1022.27L65.035 1022.27L65.035 1020.27L63.035 1020.27ZM3.49999 1037.28L5.49999 1037.28L5.49999 1003.89L3.49999 1003.89L1.49999 1003.89L1.49999 1037.28L3.49999 1037.28ZM3.49999 1003.89L5.49999 1003.89C5.49999 996.176 6.98838 989.459 9.90473 983.693L8.12 982.79L6.33526 981.887C3.09161 988.301 1.49999 995.654 1.49999 1003.89L3.49999 1003.89ZM8.12 982.79L9.91694 983.668C12.7694 977.831 16.7855 973.368 21.9685 970.219L20.93 968.51L19.8915 966.801C14.0145 970.372 9.49061 975.429 6.32305 981.912L8.12 982.79ZM20.93 968.51L21.9842 970.21C27.158 967.001 33.223 965.365 40.25 965.365L40.25 963.365L40.25 961.365C32.577 961.365 25.762 963.159 19.8758 966.81L20.93 968.51ZM40.25 963.365L40.25 965.365C47.277 965.365 53.342 967.001 58.5158 970.21L59.57 968.51L60.6242 966.81C54.738 963.159 47.923 961.365 40.25 961.365L40.25 963.365ZM59.57 968.51L58.5315 970.219C63.7187 973.371 67.7732 977.839 70.6961 983.684L72.485 982.79L74.2739 981.896C71.0368 975.421 66.4813 970.369 60.6085 966.801L59.57 968.51ZM72.485 982.79L70.692 983.676C73.544 989.446 75 996.169 75 1003.89L77 1003.89L79 1003.89C79 995.661 77.446 988.314 74.278 981.904L72.485 982.79ZM77 1003.89L75 1003.89L75 1037.28L77 1037.28L79 1037.28L79 1003.89L77 1003.89ZM77 1037.28L77 1035.28L3.49999 1035.28L3.49999 1037.28L3.49999 1039.28L77 1039.28L77 1037.28ZM63.035 1004.73L65.035 1004.73C65.035 997.004 62.8896 990.627 58.4055 985.834L56.945 987.2L55.4845 988.566C59.1204 992.453 61.035 997.766 61.035 1004.73L63.035 1004.73ZM56.945 987.2L58.4048 985.833C53.8357 980.954 47.7073 978.585 40.25 978.585L40.25 980.585L40.25 982.585C46.7927 982.585 51.7943 984.626 55.4852 988.567L56.945 987.2ZM40.25 980.585L40.25 978.585C32.7935 978.585 26.6916 980.954 22.1886 985.845L23.66 987.2L25.1314 988.555C28.7484 984.626 33.7065 982.585 40.25 982.585L40.25 980.585ZM23.66 987.2L22.2112 985.821C17.6509 990.613 15.465 996.995 15.465 1004.73L17.465 1004.73L19.465 1004.73C19.465 997.775 21.4091 992.467 25.1088 988.579L23.66 987.2ZM17.465 1004.73L15.465 1004.73L15.465 1020.27L17.465 1020.27L19.465 1020.27L19.465 1004.73L17.465 1004.73ZM17.465 1020.27L17.465 1022.27L63.035 1022.27L63.035 1020.27L63.035 1018.27L17.465 1018.27L17.465 1020.27ZM63.035 1020.27L65.035 1020.27L65.035 1004.73L63.035 1004.73L61.035 1004.73L61.035 1020.27L63.035 1020.27ZM61.25 903.157L60.486 901.309L59.25 901.82L59.25 903.157L61.25 903.157ZM61.25 937.282L59.25 937.282L59.25 938.62L60.486 939.131L61.25 937.282ZM77 943.792L79 943.792L79 942.455L77.764 941.944L77 943.792ZM77 961.222L76.1858 963.049L79 964.303L79 961.222L77 961.222ZM3.49999 928.462L1.49999 928.462L1.49999 929.761L2.68578 930.289L3.49999 928.462ZM3.49999 911.662L2.6836 909.837L1.49999 910.366L1.49999 911.662L3.49999 911.662ZM77 878.797L79 878.797L79 875.712L76.1836 876.972L77 878.797ZM77 896.647L77.764 898.496L79 897.985L79 896.647L77 896.647ZM48.335 908.512L50.335 908.512L50.335 905.519L47.5697 906.665L48.335 908.512ZM20.195 920.167L19.4297 918.32L14.9684 920.167L19.4297 922.015L20.195 920.167ZM48.335 931.822L47.5697 933.67L50.335 934.815L50.335 931.822L48.335 931.822ZM61.25 903.157L59.25 903.157L59.25 937.282L61.25 937.282L63.25 937.282L63.25 903.157L61.25 903.157ZM61.25 937.282L60.486 939.131L76.236 945.641L77 943.792L77.764 941.944L62.014 935.434L61.25 937.282ZM77 943.792L75 943.792L75 961.222L77 961.222L79 961.222L79 943.792L77 943.792ZM77 961.222L77.8142 959.396L4.3142 926.636L3.49999 928.462L2.68578 930.289L76.1858 963.049L77 961.222ZM3.49999 928.462L5.49999 928.462L5.49999 911.662L3.49999 911.662L1.49999 911.662L1.49999 928.462L3.49999 928.462ZM3.49999 911.662L4.31638 913.488L77.8164 880.623L77 878.797L76.1836 876.972L2.6836 909.837L3.49999 911.662ZM77 878.797L75 878.797L75 896.647L77 896.647L79 896.647L79 878.797L77 878.797ZM77 896.647L76.236 894.799L60.486 901.309L61.25 903.157L62.014 905.006L77.764 898.496L77 896.647ZM48.335 908.512L47.5697 906.665L19.4297 918.32L20.195 920.167L20.9603 922.015L49.1003 910.36L48.335 908.512ZM20.195 920.167L19.4297 922.015L47.5697 933.67L48.335 931.822L49.1003 929.975L20.9603 918.32L20.195 920.167ZM48.335 931.822L50.335 931.822L50.335 908.512L48.335 908.512L46.335 908.512L46.335 931.822L48.335 931.822ZM3.49998 803.762L3.49998 801.762L1.49998 801.762L1.49998 803.762L3.49998 803.762ZM77 803.762L79 803.762L79 801.762L77 801.762L77 803.762ZM77 817.727L78.2692 819.272L79 818.672L79 817.727L77 817.727ZM32.375 854.372L31.1057 852.826L26.788 856.372L32.375 856.372L32.375 854.372ZM77 854.372L79 854.372L79 852.372L77 852.372L77 854.372ZM77 871.172L77 873.172L79 873.172L79 871.172L77 871.172ZM3.49999 871.172L1.49999 871.172L1.49999 873.172L3.49999 873.172L3.49999 871.172ZM3.49999 857.102L2.23292 855.554L1.49999 856.154L1.49999 857.102L3.49999 857.102ZM48.125 820.562L49.3921 822.109L53.7244 818.562L48.125 818.562L48.125 820.562ZM3.49998 820.562L1.49998 820.562L1.49998 822.562L3.49998 822.562L3.49998 820.562ZM3.49998 803.762L3.49998 805.762L77 805.762L77 803.762L77 801.762L3.49998 801.762L3.49998 803.762ZM77 803.762L75 803.762L75 817.727L77 817.727L79 817.727L79 803.762L77 803.762ZM77 817.727L75.7307 816.181L31.1057 852.826L32.375 854.372L33.6442 855.917L78.2692 819.272L77 817.727ZM32.375 854.372L32.375 856.372L77 856.372L77 854.372L77 852.372L32.375 852.372L32.375 854.372ZM77 854.372L75 854.372L75 871.172L77 871.172L79 871.172L79 854.372L77 854.372ZM77 871.172L77 869.172L3.49999 869.172L3.49999 871.172L3.49999 873.172L77 873.172L77 871.172ZM3.49999 871.172L5.49999 871.172L5.49999 857.102L3.49999 857.102L1.49999 857.102L1.49999 871.172L3.49999 871.172ZM3.49999 857.102L4.76706 858.649L49.3921 822.109L48.125 820.562L46.8579 819.014L2.23292 855.554L3.49999 857.102ZM48.125 820.562L48.125 818.562L3.49998 818.562L3.49998 820.562L3.49998 822.562L48.125 822.562L48.125 820.562ZM3.49998 820.562L5.49998 820.562L5.49998 803.762L3.49998 803.762L1.49998 803.762L1.49998 820.562L3.49998 820.562ZM3.49998 786.372L1.49998 786.372L1.49998 788.372L3.49998 788.372L3.49998 786.372ZM3.49998 769.362L3.49998 767.362L1.49998 767.362L1.49998 769.362L3.49998 769.362ZM77 769.362L79 769.362L79 767.362L77 767.362L77 769.362ZM77 786.372L77 788.372L79 788.372L79 786.372L77 786.372ZM3.49998 786.372L5.49998 786.372L5.49998 769.362L3.49998 769.362L1.49998 769.362L1.49998 786.372L3.49998 786.372ZM3.49998 769.362L3.49998 771.362L77 771.362L77 769.362L77 767.362L3.49998 767.362L3.49998 769.362ZM77 769.362L75 769.362L75 786.372L77 786.372L79 786.372L79 769.362L77 769.362ZM77 786.372L77 784.372L3.49998 784.372L3.49998 786.372L3.49998 788.372L77 788.372L77 786.372ZM63.35 695.009L63.35 693.009L61.35 693.009L61.35 695.009L63.35 695.009ZM77 695.009L79 695.009L79 693.009L77 693.009L77 695.009ZM77 751.919L77 753.919L79 753.919L79 751.919L77 751.919ZM3.49998 751.919L1.49998 751.919L1.49998 753.919L3.49998 753.919L3.49998 751.919ZM3.49998 696.374L3.49998 694.374L1.49998 694.374L1.49998 696.374L3.49998 696.374ZM17.15 696.374L19.15 696.374L19.15 694.374L17.15 694.374L17.15 696.374ZM17.15 735.014L15.15 735.014L15.15 737.014L17.15 737.014L17.15 735.014ZM33.11 735.014L33.11 737.014L35.11 737.014L35.11 735.014L33.11 735.014ZM33.11 700.889L33.11 698.889L31.11 698.889L31.11 700.889L33.11 700.889ZM46.34 700.889L48.34 700.889L48.34 698.889L46.34 698.889L46.34 700.889ZM46.34 735.014L44.34 735.014L44.34 737.014L46.34 737.014L46.34 735.014ZM63.35 735.014L63.35 737.014L65.35 737.014L65.35 735.014L63.35 735.014ZM63.35 695.009L63.35 697.009L77 697.009L77 695.009L77 693.009L63.35 693.009L63.35 695.009ZM77 695.009L75 695.009L75 751.919L77 751.919L79 751.919L79 695.009L77 695.009ZM77 751.919L77 749.919L3.49998 749.919L3.49998 751.919L3.49998 753.919L77 753.919L77 751.919ZM3.49998 751.919L5.49998 751.919L5.49998 696.374L3.49998 696.374L1.49998 696.374L1.49998 751.919L3.49998 751.919ZM3.49998 696.374L3.49998 698.374L17.15 698.374L17.15 696.374L17.15 694.374L3.49998 694.374L3.49998 696.374ZM17.15 696.374L15.15 696.374L15.15 735.014L17.15 735.014L19.15 735.014L19.15 696.374L17.15 696.374ZM17.15 735.014L17.15 737.014L33.11 737.014L33.11 735.014L33.11 733.014L17.15 733.014L17.15 735.014ZM33.11 735.014L35.11 735.014L35.11 700.889L33.11 700.889L31.11 700.889L31.11 735.014L33.11 735.014ZM33.11 700.889L33.11 702.889L46.34 702.889L46.34 700.889L46.34 698.889L33.11 698.889L33.11 700.889ZM46.34 700.889L44.34 700.889L44.34 735.014L46.34 735.014L48.34 735.014L48.34 700.889L46.34 700.889ZM46.34 735.014L46.34 737.014L63.35 737.014L63.35 735.014L63.35 733.014L46.34 733.014L46.34 735.014ZM63.35 735.014L65.35 735.014L65.35 695.009L63.35 695.009L61.35 695.009L61.35 735.014L63.35 735.014ZM3.49998 681.474L1.49998 681.474L1.49998 683.474L3.49998 683.474L3.49998 681.474ZM3.49998 664.464L3.49998 662.464L1.49998 662.464L1.49998 664.464L3.49998 664.464ZM63.14 664.464L63.14 666.464L65.14 666.464L65.14 664.464L63.14 664.464ZM63.14 627.609L63.14 625.609L61.14 625.609L61.14 627.609L63.14 627.609ZM77 627.609L79 627.609L79 625.609L77 625.609L77 627.609ZM77 681.474L77 683.474L79 683.474L79 681.474L77 681.474ZM3.49998 681.474L5.49998 681.474L5.49998 664.464L3.49998 664.464L1.49998 664.464L1.49998 681.474L3.49998 681.474ZM3.49998 664.464L3.49998 666.464L63.14 666.464L63.14 664.464L63.14 662.464L3.49998 662.464L3.49998 664.464ZM63.14 664.464L65.14 664.464L65.14 627.609L63.14 627.609L61.14 627.609L61.14 664.464L63.14 664.464ZM63.14 627.609L63.14 629.609L77 629.609L77 627.609L77 625.609L63.14 625.609L63.14 627.609ZM77 627.609L75 627.609L75 681.474L77 681.474L79 681.474L79 627.609L77 627.609ZM77 681.474L77 679.474L3.49998 679.474L3.49998 681.474L3.49998 683.474L77 683.474L77 681.474ZM77 521.484L77.0047 523.484L79 523.479L79 521.484L77 521.484ZM32.9 521.589L32.8952 519.589L25.6602 519.606L31.8768 523.307L32.9 521.589ZM69.23 543.219L71.23 543.219L71.23 542.082L70.2531 541.5L69.23 543.219ZM69.23 550.884L70.2694 552.593L71.23 552.008L71.23 550.884L69.23 550.884ZM33.845 572.409L32.8056 570.7L26.7088 574.409L33.845 574.409L33.845 572.409ZM77 572.409L79 572.409L79 570.409L77 570.409L77 572.409ZM77 588.369L77 590.369L79 590.369L79 588.369L77 588.369ZM3.49997 588.369L1.49997 588.369L1.49997 590.369L3.49997 590.369L3.49997 588.369ZM3.49997 574.299L2.46809 572.586L1.49997 573.169L1.49997 574.299L3.49997 574.299ZM49.175 546.789L50.2069 548.502L53.0733 546.776L50.1952 545.069L49.175 546.789ZM3.49997 519.699L1.49997 519.699L1.49997 520.838L2.47972 521.419L3.49997 519.699ZM3.49997 505.734L3.49426 503.734L1.49997 503.74L1.49997 505.734L3.49997 505.734ZM77 505.524L79 505.524L79 503.518L76.9943 503.524L77 505.524ZM77 521.484L76.9952 519.484L32.8952 519.589L32.9 521.589L32.9047 523.589L77.0047 523.484L77 521.484ZM32.9 521.589L31.8768 523.307L68.2068 544.937L69.23 543.219L70.2531 541.5L33.9231 519.87L32.9 521.589ZM69.23 543.219L67.23 543.219L67.23 550.884L69.23 550.884L71.23 550.884L71.23 543.219L69.23 543.219ZM69.23 550.884L68.1906 549.175L32.8056 570.7L33.845 572.409L34.8844 574.118L70.2694 552.593L69.23 550.884ZM33.845 572.409L33.845 574.409L77 574.409L77 572.409L77 570.409L33.845 570.409L33.845 572.409ZM77 572.409L75 572.409L75 588.369L77 588.369L79 588.369L79 572.409L77 572.409ZM77 588.369L77 586.369L3.49997 586.369L3.49997 588.369L3.49997 590.369L77 590.369L77 588.369ZM3.49997 588.369L5.49997 588.369L5.49997 574.299L3.49997 574.299L1.49997 574.299L1.49997 588.369L3.49997 588.369ZM3.49997 574.299L4.53186 576.012L50.2069 548.502L49.175 546.789L48.1431 545.076L2.46809 572.586L3.49997 574.299ZM49.175 546.789L50.1952 545.069L4.52023 517.979L3.49997 519.699L2.47972 521.419L48.1547 548.509L49.175 546.789ZM3.49997 519.699L5.49997 519.699L5.49997 505.734L3.49997 505.734L1.49997 505.734L1.49997 519.699L3.49997 519.699ZM3.49997 505.734L3.50569 507.734L77.0057 507.524L77 505.524L76.9943 503.524L3.49426 503.734L3.49997 505.734ZM77 505.524L75 505.524L75 521.484L77 521.484L79 521.484L79 505.524L77 505.524ZM63.35 431.176L63.35 429.176L61.35 429.176L61.35 431.176L63.35 431.176ZM77 431.176L79 431.176L79 429.176L77 429.176L77 431.176ZM77 488.086L77 490.086L79 490.086L79 488.086L77 488.086ZM3.49997 488.086L1.49997 488.086L1.49997 490.086L3.49997 490.086L3.49997 488.086ZM3.49997 432.541L3.49997 430.541L1.49997 430.541L1.49997 432.541L3.49997 432.541ZM17.15 432.541L19.15 432.541L19.15 430.541L17.15 430.541L17.15 432.541ZM17.15 471.181L15.15 471.181L15.15 473.181L17.15 473.181L17.15 471.181ZM33.11 471.181L33.11 473.181L35.11 473.181L35.11 471.181L33.11 471.181ZM33.11 437.056L33.11 435.056L31.11 435.056L31.11 437.056L33.11 437.056ZM46.34 437.056L48.34 437.056L48.34 435.056L46.34 435.056L46.34 437.056ZM46.34 471.181L44.34 471.181L44.34 473.181L46.34 473.181L46.34 471.181ZM63.35 471.181L63.35 473.181L65.35 473.181L65.35 471.181L63.35 471.181ZM63.35 431.176L63.35 433.176L77 433.176L77 431.176L77 429.176L63.35 429.176L63.35 431.176ZM77 431.176L75 431.176L75 488.086L77 488.086L79 488.086L79 431.176L77 431.176ZM77 488.086L77 486.086L3.49997 486.086L3.49997 488.086L3.49997 490.086L77 490.086L77 488.086ZM3.49997 488.086L5.49997 488.086L5.49997 432.541L3.49997 432.541L1.49997 432.541L1.49997 488.086L3.49997 488.086ZM3.49997 432.541L3.49997 434.541L17.15 434.541L17.15 432.541L17.15 430.541L3.49997 430.541L3.49997 432.541ZM17.15 432.541L15.15 432.541L15.15 471.181L17.15 471.181L19.15 471.181L19.15 432.541L17.15 432.541ZM17.15 471.181L17.15 473.181L33.11 473.181L33.11 471.181L33.11 469.181L17.15 469.181L17.15 471.181ZM33.11 471.181L35.11 471.181L35.11 437.056L33.11 437.056L31.11 437.056L31.11 471.181L33.11 471.181ZM33.11 437.056L33.11 439.056L46.34 439.056L46.34 437.056L46.34 435.056L33.11 435.056L33.11 437.056ZM46.34 437.056L44.34 437.056L44.34 471.181L46.34 471.181L48.34 471.181L48.34 437.056L46.34 437.056ZM46.34 471.181L46.34 473.181L63.35 473.181L63.35 471.181L63.35 469.181L46.34 469.181L46.34 471.181ZM63.35 471.181L65.35 471.181L65.35 431.176L63.35 431.176L61.35 431.176L61.35 471.181L63.35 471.181ZM3.49997 417.641L1.49997 417.641L1.49997 419.641L3.49997 419.641L3.49997 417.641ZM3.49997 400.631L3.49997 398.631L1.49997 398.631L1.49997 400.631L3.49997 400.631ZM63.14 400.631L63.14 402.631L65.14 402.631L65.14 400.631L63.14 400.631ZM63.14 363.776L63.14 361.776L61.14 361.776L61.14 363.776L63.14 363.776ZM77 363.776L79 363.776L79 361.776L77 361.776L77 363.776ZM77 417.641L77 419.641L79 419.641L79 417.641L77 417.641ZM3.49997 417.641L5.49997 417.641L5.49997 400.631L3.49997 400.631L1.49997 400.631L1.49997 417.641L3.49997 417.641ZM3.49997 400.631L3.49997 402.631L63.14 402.631L63.14 400.631L63.14 398.631L3.49997 398.631L3.49997 400.631ZM63.14 400.631L65.14 400.631L65.14 363.776L63.14 363.776L61.14 363.776L61.14 400.631L63.14 400.631ZM63.14 363.776L63.14 365.776L77 365.776L77 363.776L77 361.776L63.14 361.776L63.14 363.776ZM77 363.776L75 363.776L75 417.641L77 417.641L79 417.641L79 363.776L77 363.776ZM77 417.641L77 415.641L3.49997 415.641L3.49997 417.641L3.49997 419.641L77 419.641L77 417.641ZM3.49996 286.862L3.49996 284.862L1.49996 284.862L1.49996 286.862L3.49996 286.862ZM77 286.862L79 286.862L79 284.862L77 284.862L77 286.862ZM77 300.827L78.2692 302.373L79 301.773L79 300.827L77 300.827ZM32.375 337.472L31.1057 335.927L26.788 339.472L32.375 339.472L32.375 337.472ZM77 337.472L79 337.472L79 335.472L77 335.472L77 337.472ZM77 354.272L77 356.272L79 356.272L79 354.272L77 354.272ZM3.49996 354.272L1.49996 354.272L1.49996 356.272L3.49996 356.272L3.49996 354.272ZM3.49996 340.202L2.23289 338.655L1.49996 339.255L1.49996 340.202L3.49996 340.202ZM48.125 303.662L49.392 305.21L53.7244 301.662L48.125 301.662L48.125 303.662ZM3.49996 303.662L1.49996 303.662L1.49996 305.662L3.49996 305.662L3.49996 303.662ZM3.49996 286.862L3.49996 288.862L77 288.862L77 286.862L77 284.862L3.49996 284.862L3.49996 286.862ZM77 286.862L75 286.862L75 300.827L77 300.827L79 300.827L79 286.862L77 286.862ZM77 300.827L75.7307 299.282L31.1057 335.927L32.375 337.472L33.6442 339.018L78.2692 302.373L77 300.827ZM32.375 337.472L32.375 339.472L77 339.472L77 337.472L77 335.472L32.375 335.472L32.375 337.472ZM77 337.472L75 337.472L75 354.272L77 354.272L79 354.272L79 337.472L77 337.472ZM77 354.272L77 352.272L3.49996 352.272L3.49996 354.272L3.49996 356.272L77 356.272L77 354.272ZM3.49996 354.272L5.49996 354.272L5.49996 340.202L3.49996 340.202L1.49996 340.202L1.49996 354.272L3.49996 354.272ZM3.49996 340.202L4.76703 341.75L49.392 305.21L48.125 303.662L46.8579 302.115L2.23289 338.655L3.49996 340.202ZM48.125 303.662L48.125 301.662L3.49996 301.662L3.49996 303.662L3.49996 305.662L48.125 305.662L48.125 303.662ZM3.49996 303.662L5.49996 303.662L5.49996 286.862L3.49996 286.862L1.49996 286.862L1.49996 303.662L3.49996 303.662ZM3.49996 269.472L1.49996 269.472L1.49996 271.472L3.49996 271.472L3.49996 269.472ZM3.49996 252.463L3.49996 250.463L1.49996 250.463L1.49996 252.463L3.49996 252.463ZM77 252.463L79 252.463L79 250.463L77 250.463L77 252.463ZM77 269.472L77 271.472L79 271.472L79 269.472L77 269.472ZM3.49996 269.472L5.49996 269.472L5.49996 252.463L3.49996 252.463L1.49996 252.463L1.49996 269.472L3.49996 269.472ZM3.49996 252.463L3.49996 254.463L77 254.463L77 252.463L77 250.463L3.49996 250.463L3.49996 252.463ZM77 252.463L75 252.463L75 269.472L77 269.472L79 269.472L79 252.463L77 252.463ZM77 269.472L77 267.472L3.49996 267.472L3.49996 269.472L3.49996 271.472L77 271.472L77 269.472ZM48.125 208.244L46.8619 206.694L45.1083 208.122L46.7405 209.688L48.125 208.244ZM58.415 218.114L57.0305 219.558L57.6108 220.114L58.415 220.114L58.415 218.114ZM77 218.114L79 218.114L79 216.114L77 216.114L77 218.114ZM77 235.019L77 237.019L79 237.019L79 235.019L77 235.019ZM3.49996 235.019L1.49996 235.019L1.49996 237.019L3.49996 237.019L3.49996 235.019ZM3.49996 218.114L3.49996 216.114L1.49996 216.114L1.49996 218.114L3.49996 218.114ZM37.835 218.114L37.835 220.114L42.8517 220.114L39.2109 216.663L37.835 218.114ZM3.49996 185.564L1.49996 185.564L1.49996 186.424L2.12398 187.016L3.49996 185.564ZM3.49996 166.664L4.86158 165.199L1.49996 162.075L1.49996 166.664L3.49996 166.664ZM36.26 197.114L34.8983 198.579L36.1552 199.748L37.501 198.683L36.26 197.114ZM77 164.879L79 164.879L79 160.747L75.759 163.311L77 164.879ZM77 184.724L78.2631 186.275L79 185.675L79 184.724L77 184.724ZM48.125 208.244L46.7405 209.688L57.0305 219.558L58.415 218.114L59.7994 216.671L49.5094 206.801L48.125 208.244ZM58.415 218.114L58.415 220.114L77 220.114L77 218.114L77 216.114L58.415 216.114L58.415 218.114ZM77 218.114L75 218.114L75 235.019L77 235.019L79 235.019L79 218.114L77 218.114ZM77 235.019L77 233.019L3.49996 233.019L3.49996 235.019L3.49996 237.019L77 237.019L77 235.019ZM3.49996 235.019L5.49996 235.019L5.49996 218.114L3.49996 218.114L1.49996 218.114L1.49996 235.019L3.49996 235.019ZM3.49996 218.114L3.49996 220.114L37.835 220.114L37.835 218.114L37.835 216.114L3.49996 216.114L3.49996 218.114ZM37.835 218.114L39.2109 216.663L4.87594 184.113L3.49996 185.564L2.12398 187.016L36.459 219.566L37.835 218.114ZM3.49996 185.564L5.49996 185.564L5.49996 166.664L3.49996 166.664L1.49996 166.664L1.49996 185.564L3.49996 185.564ZM3.49996 166.664L2.13833 168.129L34.8983 198.579L36.26 197.114L37.6216 195.649L4.86158 165.199L3.49996 166.664ZM36.26 197.114L37.501 198.683L78.241 166.448L77 164.879L75.759 163.311L35.019 195.546L36.26 197.114ZM77 164.879L75 164.879L75 184.724L77 184.724L79 184.724L79 164.879L77 164.879ZM77 184.724L75.7369 183.174L46.8619 206.694L48.125 208.244L49.3881 209.795L78.2631 186.275L77 184.724ZM73.325 145.051L75.0846 146.001L75.0891 145.993L73.325 145.051ZM59.78 159.436L60.7967 161.158L60.809 161.151L60.8212 161.143L59.78 159.436ZM20.825 159.436L19.7929 161.149L19.799 161.153L20.825 159.436ZM7.17496 145.051L5.41079 145.993L5.41532 146.001L7.17496 145.051ZM20.825 89.4008L21.857 91.114L21.8662 91.1083L20.825 89.4008ZM59.78 89.4008L60.8212 87.6932L60.812 87.6876L59.78 89.4008ZM73.325 103.786L75.0846 102.835L73.325 103.786ZM60.83 112.606L62.575 111.629L62.5676 111.615L62.56 111.602L60.83 112.606ZM52.43 104.416L51.4414 106.154L51.4543 106.162L51.4674 106.169L52.43 104.416ZM28.07 104.416L29.0325 106.169L29.0456 106.162L29.0586 106.154L28.07 104.416ZM19.775 112.606L21.505 113.609L21.5126 113.596L21.52 113.583L19.775 112.606ZM19.775 136.126L21.52 135.149L21.5126 135.135L21.505 135.122L19.775 136.126ZM28.07 144.421L27.0814 146.159L27.0943 146.167L27.1074 146.174L28.07 144.421ZM52.43 144.421L53.3925 146.174L53.4056 146.167L53.4186 146.159L52.43 144.421ZM60.83 136.126L62.56 137.129L62.5676 137.116L62.575 137.103L60.83 136.126ZM78.26 124.366L76.26 124.366C76.26 131.698 74.6819 138.265 71.5608 144.109L73.325 145.051L75.0891 145.993C78.548 139.517 80.26 132.293 80.26 124.366L78.26 124.366ZM73.325 145.051L71.5653 144.1C68.4384 149.888 64.1673 154.418 58.7387 157.728L59.78 159.436L60.8212 161.143C66.8726 157.453 71.6316 152.393 75.0846 146.001L73.325 145.051ZM59.78 159.436L58.7632 157.713C53.2824 160.949 47.1278 162.581 40.25 162.581L40.25 164.581L40.25 166.581C47.7922 166.581 54.6575 164.782 60.7967 161.158L59.78 159.436ZM40.25 164.581L40.25 162.581C33.3719 162.581 27.2565 160.949 21.8509 157.719L20.825 159.436L19.799 161.153C25.8734 164.782 32.708 166.581 40.25 166.581L40.25 164.581ZM20.825 159.436L21.857 157.723C16.3599 154.411 12.0583 149.882 8.9346 144.1L7.17496 145.051L5.41532 146.001C8.87165 152.399 13.67 157.46 19.7929 161.149L20.825 159.436ZM7.17496 145.051L8.93911 144.109C5.81798 138.265 4.23996 131.698 4.23996 124.366L2.23996 124.366L0.239958 124.366C0.239958 132.293 1.95194 139.517 5.41081 145.993L7.17496 145.051ZM2.23996 124.366L4.23996 124.366C4.23996 117.033 5.81805 110.505 8.9346 104.736L7.17496 103.786L5.41531 102.835C1.95187 109.246 0.239957 116.439 0.239958 124.366L2.23996 124.366ZM7.17496 103.786L8.9346 104.736C12.0583 98.9543 16.3599 94.4255 21.857 91.114L20.825 89.4008L19.7929 87.6876C13.67 91.3761 8.87165 96.4373 5.41531 102.835L7.17496 103.786ZM20.825 89.4008L21.8662 91.1083C27.2697 87.8135 33.3796 86.1508 40.25 86.1508L40.25 84.1508L40.25 82.1508C32.7003 82.1508 25.8602 83.988 19.7837 87.6932L20.825 89.4008ZM40.25 84.1508L40.25 86.1508C47.1201 86.1508 53.2693 87.8135 58.7479 91.1139L59.78 89.4008L60.812 87.6876C54.6706 83.988 47.7998 82.1508 40.25 82.1508L40.25 84.1508ZM59.78 89.4008L58.7387 91.1083C64.1673 94.4185 68.4384 98.9482 71.5653 104.736L73.325 103.786L75.0846 102.835C71.6316 96.4434 66.8726 91.3831 60.8212 87.6932L59.78 89.4008ZM73.325 103.786L71.5653 104.736C74.6819 110.505 76.26 117.033 76.26 124.366L78.26 124.366L80.26 124.366C80.26 116.439 78.548 109.246 75.0846 102.835L73.325 103.786ZM63.77 124.366L65.77 124.366C65.77 119.712 64.7157 115.451 62.575 111.629L60.83 112.606L59.0849 113.583C60.8642 116.76 61.77 120.339 61.77 124.366L63.77 124.366ZM60.83 112.606L62.56 111.602C60.346 107.785 57.2796 104.797 53.3925 102.663L52.43 104.416L51.4674 106.169C54.7203 107.955 57.2539 110.427 59.0999 113.609L60.83 112.606ZM52.43 104.416L53.4186 102.677C49.5156 100.458 45.1083 99.3708 40.25 99.3708L40.25 101.371L40.25 103.371C44.4916 103.371 48.2043 104.314 51.4414 106.154L52.43 104.416ZM40.25 101.371L40.25 99.3708C35.3916 99.3708 30.9843 100.458 27.0814 102.677L28.07 104.416L29.0586 106.154C32.2956 104.314 36.0083 103.371 40.25 103.371L40.25 101.371ZM28.07 104.416L27.1074 102.663C23.2144 104.8 20.1759 107.797 18.0299 111.629L19.775 112.606L21.52 113.583C23.294 110.415 25.7855 107.952 29.0325 106.169L28.07 104.416ZM19.775 112.606L18.0449 111.602C15.8252 115.429 14.73 119.7 14.73 124.366L16.73 124.366L18.73 124.366C18.73 120.352 19.6647 116.782 21.505 113.609L19.775 112.606ZM16.73 124.366L14.73 124.366C14.73 129.032 15.8252 133.302 18.0449 137.129L19.775 136.126L21.505 135.122C19.6647 131.949 18.73 128.38 18.73 124.366L16.73 124.366ZM19.775 136.126L18.0299 137.103C20.1724 140.929 23.2025 143.954 27.0814 146.159L28.07 144.421L29.0586 142.682C25.7974 140.828 23.2975 138.323 21.52 135.149L19.775 136.126ZM28.07 144.421L27.1074 146.174C31.0057 148.314 35.4036 149.361 40.25 149.361L40.25 147.361L40.25 145.361C35.9963 145.361 32.2742 144.447 29.0325 142.668L28.07 144.421ZM40.25 147.361L40.25 149.361C45.0963 149.361 49.4942 148.314 53.3925 146.174L52.43 144.421L51.4674 142.668C48.2257 144.447 44.5036 145.361 40.25 145.361L40.25 147.361ZM52.43 144.421L53.4186 146.159C57.2916 143.957 60.3495 140.94 62.56 137.129L60.83 136.126L59.0999 135.122C57.2504 138.311 54.7083 140.825 51.4414 142.682L52.43 144.421ZM60.83 136.126L62.575 137.103C64.7157 133.28 65.77 129.019 65.77 124.366L63.77 124.366L61.77 124.366C61.77 128.392 60.8642 131.971 59.0849 135.149L60.83 136.126ZM3.49995 3.16296L4.29443 1.32751L1.49995 0.117919L1.49995 3.16296L3.49995 3.16296ZM77 34.978L79 34.978L79 33.6644L77.7944 33.1425L77 34.978ZM77 51.7779L77.7922 53.6144L79 53.0933L79 51.7779L77 51.7779ZM3.49995 83.488L1.49995 83.488L1.49995 86.529L4.29222 85.3243L3.49995 83.488ZM3.49995 65.113L2.71611 63.2729L1.49995 63.7911L1.49995 65.113L3.49995 65.113ZM56 42.748L56.7838 44.5879L61.0729 42.7608L56.7931 40.912L56 42.748ZM3.49995 20.068L1.49995 20.068L1.49995 21.3826L2.7068 21.9039L3.49995 20.068ZM3.49995 3.16296L2.70547 4.99841L76.2055 36.8134L77 34.978L77.7944 33.1425L4.29443 1.32751L3.49995 3.16296ZM77 34.978L75 34.978L75 51.7779L77 51.7779L79 51.7779L79 34.978L77 34.978ZM77 51.7779L76.2077 49.9416L2.70768 81.6516L3.49995 83.488L4.29222 85.3243L77.7922 53.6144L77 51.7779ZM3.49995 83.488L5.49995 83.488L5.49995 65.113L3.49995 65.113L1.49995 65.113L1.49995 83.488L3.49995 83.488ZM3.49995 65.113L4.28379 66.9529L56.7838 44.5879L56 42.748L55.2161 40.908L2.71611 63.2729L3.49995 65.113ZM56 42.748L56.7931 40.912L4.2931 18.2319L3.49995 20.068L2.7068 21.9039L55.2068 44.584L56 42.748ZM3.49995 20.068L5.49995 20.068L5.49995 3.16296L3.49995 3.16296L1.49995 3.16296L1.49995 20.068L3.49995 20.068Z" fill="white" mask="url(#path-1-outside-1_89_68)"/>
</svg>
